<mxfile host="Electron" modified="2023-08-16T10:56:29.816Z" agent="Mozilla/5.0 (Windows NT 10.0; Win64; x64) AppleWebKit/537.36 (KHTML, like Gecko) draw.io/21.6.8 Chrome/114.0.5735.289 Electron/25.5.0 Safari/537.36" etag="93stxQtiSve-CkrWzi6W" version="21.6.8" type="device">
  <diagram name="Page-1" id="j2m0L8MKRR5pyremR1uO">
    <mxGraphModel dx="2938" dy="1188" grid="1" gridSize="10" guides="1" tooltips="1" connect="1" arrows="1" fold="1" page="1" pageScale="1" pageWidth="850" pageHeight="1100" math="0" shadow="0">
      <root>
        <mxCell id="0" />
        <mxCell id="1" parent="0" />
        <mxCell id="ghCQ3Y4fkqYhE1xKkqQp-1" value="" style="shape=cloud;whiteSpace=wrap;html=1;" parent="1" vertex="1">
          <mxGeometry x="325.5" y="520" width="220" height="140" as="geometry" />
        </mxCell>
        <mxCell id="ghCQ3Y4fkqYhE1xKkqQp-2" value="" style="verticalLabelPosition=bottom;sketch=0;aspect=fixed;html=1;verticalAlign=top;strokeColor=none;align=center;outlineConnect=0;shape=mxgraph.citrix.web_server;" parent="1" vertex="1">
          <mxGeometry x="133.75" y="290" width="76.5" height="90" as="geometry" />
        </mxCell>
        <mxCell id="ghCQ3Y4fkqYhE1xKkqQp-3" value="" style="verticalLabelPosition=bottom;sketch=0;aspect=fixed;html=1;verticalAlign=top;strokeColor=none;align=center;outlineConnect=0;shape=mxgraph.citrix.web_server;" parent="1" vertex="1">
          <mxGeometry x="639" y="290" width="76.5" height="90" as="geometry" />
        </mxCell>
        <mxCell id="ghCQ3Y4fkqYhE1xKkqQp-4" value="" style="verticalLabelPosition=bottom;sketch=0;aspect=fixed;html=1;verticalAlign=top;strokeColor=none;align=center;outlineConnect=0;shape=mxgraph.citrix.web_server;" parent="1" vertex="1">
          <mxGeometry x="133.75" y="730" width="76.5" height="90" as="geometry" />
        </mxCell>
        <mxCell id="ghCQ3Y4fkqYhE1xKkqQp-5" value="" style="verticalLabelPosition=bottom;sketch=0;aspect=fixed;html=1;verticalAlign=top;strokeColor=none;align=center;outlineConnect=0;shape=mxgraph.citrix.web_server;" parent="1" vertex="1">
          <mxGeometry x="397.25" y="730" width="76.5" height="90" as="geometry" />
        </mxCell>
        <mxCell id="ghCQ3Y4fkqYhE1xKkqQp-6" value="Internet" style="text;strokeColor=none;fillColor=none;html=1;fontSize=24;fontStyle=1;verticalAlign=middle;align=center;" parent="1" vertex="1">
          <mxGeometry x="385.5" y="570" width="100" height="40" as="geometry" />
        </mxCell>
        <mxCell id="ghCQ3Y4fkqYhE1xKkqQp-7" value="&lt;font style=&quot;font-size: 17px;&quot;&gt;porssisahko.net&lt;/font&gt;" style="text;strokeColor=none;fillColor=none;html=1;fontSize=24;fontStyle=1;verticalAlign=middle;align=center;" parent="1" vertex="1">
          <mxGeometry x="122" y="230" width="100" height="40" as="geometry" />
        </mxCell>
        <mxCell id="ghCQ3Y4fkqYhE1xKkqQp-8" value="&lt;font style=&quot;font-size: 17px;&quot;&gt;ilmatieteenlaitos.fi&lt;/font&gt;" style="text;strokeColor=none;fillColor=none;html=1;fontSize=24;fontStyle=1;verticalAlign=middle;align=center;" parent="1" vertex="1">
          <mxGeometry x="627.25" y="230" width="100" height="40" as="geometry" />
        </mxCell>
        <mxCell id="ghCQ3Y4fkqYhE1xKkqQp-9" value="&lt;font style=&quot;font-size: 17px;&quot;&gt;NGINX reverse proxy&lt;/font&gt;" style="text;strokeColor=none;fillColor=none;html=1;fontSize=24;fontStyle=1;verticalAlign=middle;align=center;" parent="1" vertex="1">
          <mxGeometry x="122" y="830" width="100" height="40" as="geometry" />
        </mxCell>
        <mxCell id="ghCQ3Y4fkqYhE1xKkqQp-10" value="&lt;font style=&quot;font-size: 17px;&quot;&gt;Node.js web browser&lt;/font&gt;" style="text;strokeColor=none;fillColor=none;html=1;fontSize=24;fontStyle=1;verticalAlign=middle;align=center;" parent="1" vertex="1">
          <mxGeometry x="385.5" y="830" width="100" height="40" as="geometry" />
        </mxCell>
        <mxCell id="ghCQ3Y4fkqYhE1xKkqQp-11" value="" style="verticalLabelPosition=bottom;sketch=0;aspect=fixed;html=1;verticalAlign=top;strokeColor=none;align=center;outlineConnect=0;shape=mxgraph.citrix.database_server;" parent="1" vertex="1">
          <mxGeometry x="637.25" y="730" width="80" height="90" as="geometry" />
        </mxCell>
        <mxCell id="ghCQ3Y4fkqYhE1xKkqQp-12" value="&lt;font style=&quot;font-size: 17px;&quot;&gt;PostgreSQL database server&lt;/font&gt;" style="text;strokeColor=none;fillColor=none;html=1;fontSize=24;fontStyle=1;verticalAlign=middle;align=center;" parent="1" vertex="1">
          <mxGeometry x="627.25" y="830" width="100" height="40" as="geometry" />
        </mxCell>
        <mxCell id="k59GtesLESAVn46tGv3F-1" value="" style="verticalLabelPosition=bottom;sketch=0;aspect=fixed;html=1;verticalAlign=top;strokeColor=none;align=center;outlineConnect=0;shape=mxgraph.citrix.remote_office;" parent="1" vertex="1">
          <mxGeometry x="100" y="569" width="92" height="41.5" as="geometry" />
        </mxCell>
        <mxCell id="k59GtesLESAVn46tGv3F-2" value="&lt;font style=&quot;font-size: 17px;&quot;&gt;Raspberry Pi microcontroller&lt;/font&gt;" style="text;strokeColor=none;fillColor=none;html=1;fontSize=24;fontStyle=1;verticalAlign=middle;align=center;" parent="1" vertex="1">
          <mxGeometry x="92" y="610" width="100" height="40" as="geometry" />
        </mxCell>
        <mxCell id="5uHRPUXOuf2whXafk4DR-1" value="" style="endArrow=none;html=1;rounded=0;entryX=0.25;entryY=0.25;entryDx=0;entryDy=0;entryPerimeter=0;" edge="1" parent="1" source="ghCQ3Y4fkqYhE1xKkqQp-2" target="ghCQ3Y4fkqYhE1xKkqQp-1">
          <mxGeometry width="50" height="50" relative="1" as="geometry">
            <mxPoint x="400" y="630" as="sourcePoint" />
            <mxPoint x="450" y="580" as="targetPoint" />
          </mxGeometry>
        </mxCell>
        <mxCell id="5uHRPUXOuf2whXafk4DR-2" value="" style="endArrow=none;html=1;rounded=0;entryX=0.16;entryY=0.55;entryDx=0;entryDy=0;entryPerimeter=0;" edge="1" parent="1" source="k59GtesLESAVn46tGv3F-1" target="ghCQ3Y4fkqYhE1xKkqQp-1">
          <mxGeometry width="50" height="50" relative="1" as="geometry">
            <mxPoint x="400" y="630" as="sourcePoint" />
            <mxPoint x="450" y="580" as="targetPoint" />
          </mxGeometry>
        </mxCell>
        <mxCell id="5uHRPUXOuf2whXafk4DR-3" value="" style="endArrow=none;html=1;rounded=0;entryX=0.31;entryY=0.8;entryDx=0;entryDy=0;entryPerimeter=0;" edge="1" parent="1" source="ghCQ3Y4fkqYhE1xKkqQp-4" target="ghCQ3Y4fkqYhE1xKkqQp-1">
          <mxGeometry width="50" height="50" relative="1" as="geometry">
            <mxPoint x="400" y="630" as="sourcePoint" />
            <mxPoint x="450" y="580" as="targetPoint" />
          </mxGeometry>
        </mxCell>
        <mxCell id="5uHRPUXOuf2whXafk4DR-4" value="" style="endArrow=none;html=1;rounded=0;entryX=0.525;entryY=0.957;entryDx=0;entryDy=0;entryPerimeter=0;" edge="1" parent="1" source="ghCQ3Y4fkqYhE1xKkqQp-5" target="ghCQ3Y4fkqYhE1xKkqQp-1">
          <mxGeometry width="50" height="50" relative="1" as="geometry">
            <mxPoint x="400" y="630" as="sourcePoint" />
            <mxPoint x="450" y="580" as="targetPoint" />
          </mxGeometry>
        </mxCell>
        <mxCell id="5uHRPUXOuf2whXafk4DR-5" value="" style="endArrow=none;html=1;rounded=0;exitX=0.8;exitY=0.8;exitDx=0;exitDy=0;exitPerimeter=0;" edge="1" parent="1" source="ghCQ3Y4fkqYhE1xKkqQp-1" target="ghCQ3Y4fkqYhE1xKkqQp-11">
          <mxGeometry width="50" height="50" relative="1" as="geometry">
            <mxPoint x="580" y="700" as="sourcePoint" />
            <mxPoint x="630" y="650" as="targetPoint" />
          </mxGeometry>
        </mxCell>
        <mxCell id="5uHRPUXOuf2whXafk4DR-6" value="" style="endArrow=none;html=1;rounded=0;exitX=0.625;exitY=0.2;exitDx=0;exitDy=0;exitPerimeter=0;" edge="1" parent="1" source="ghCQ3Y4fkqYhE1xKkqQp-1" target="ghCQ3Y4fkqYhE1xKkqQp-3">
          <mxGeometry width="50" height="50" relative="1" as="geometry">
            <mxPoint x="540" y="480" as="sourcePoint" />
            <mxPoint x="590" y="430" as="targetPoint" />
          </mxGeometry>
        </mxCell>
      </root>
    </mxGraphModel>
  </diagram>
</mxfile>
